<svg width="251" height="251" viewBox="0 0 251 251" fill="none" xmlns="http://www.w3.org/2000/svg">
<path d="M102.401 77.9054L148.861 84.6046L157.257 17.0128L120.299 36.7891" fill="white"/>
<path d="M41.4074 86.9038L62.9985 37.4693L103.337 17.0128L96.5195 82.3582L163.002 92.0166L178.915 117.019L238.011 125.543L235.169 141.451L211.869 156.792L144.817 170.419L108.452 202.236L102.202 178.94L64.7002 193.717L61.8614 157.924L35.155 164.736L41.4074 86.9038ZM135.181 114.888L103.184 111.366L119.185 128.394L133.128 129.862L140.055 123.695L135.181 114.888Z" fill="white"/>
<path d="M36.9046 87.1974L15.4064 93.4573L7.21631 136.318H12.1786L9.36487 200.609L19.6408 198.85L18.7598 212.057L35.1526 208.536V216.462L100.957 191.508L99.0371 183.77L60.4534 199.422L57.5995 162.829L30.3786 169.197" fill="white"/>
<path d="M161.74 223.201L148.962 152.62L172.593 156.744L161.74 223.201Z" fill="white"/>
<path d="M185.31 202.112L172.532 131.531L196.163 135.655L185.31 202.112Z" fill="white"/>
</svg>
